<?xml version="1.0" encoding="UTF-8" standalone="no"?>
<!-- Created with Inkscape (http://www.inkscape.org/) -->

<svg
   xmlns:dc="http://purl.org/dc/elements/1.1/"
   xmlns:cc="http://creativecommons.org/ns#"
   xmlns:rdf="http://www.w3.org/1999/02/22-rdf-syntax-ns#"
   xmlns:svg="http://www.w3.org/2000/svg"
   xmlns="http://www.w3.org/2000/svg"
   xmlns:sodipodi="http://sodipodi.sourceforge.net/DTD/sodipodi-0.dtd"
   xmlns:inkscape="http://www.inkscape.org/namespaces/inkscape"
   id="svg3261"
   version="1.1"
   inkscape:version="0.48.4 r9939"
   width="539"
   height="544"
   sodipodi:docname="octocat.png">
  <metadata
     id="metadata3267">
    <rdf:RDF>
      <cc:Work
         rdf:about="">
        <dc:format>image/svg+xml</dc:format>
        <dc:type
           rdf:resource="http://purl.org/dc/dcmitype/StillImage" />
        <dc:title></dc:title>
      </cc:Work>
    </rdf:RDF>
  </metadata>
  <defs
     id="defs3265" />
  <sodipodi:namedview
     pagecolor="#ffffff"
     bordercolor="#666666"
     borderopacity="1"
     objecttolerance="10"
     gridtolerance="10"
     guidetolerance="10"
     inkscape:pageopacity="0"
     inkscape:pageshadow="2"
     inkscape:window-width="1918"
     inkscape:window-height="1078"
     id="namedview3263"
     showgrid="false"
     inkscape:zoom="1.2270382"
     inkscape:cx="352.31602"
     inkscape:cy="179.25785"
     inkscape:window-x="0"
     inkscape:window-y="0"
     inkscape:window-maximized="0"
     inkscape:current-layer="svg3261" />
  <path
     style="fill:#d9d9d9"
     d="M 245.5,538.34842 C 188.85166,531.70329 146.83106,515.25018 104.5,483.14004 91.56076,473.32501 65.596631,447.33393 55.677842,434.2672 31.139319,401.94085 14.295525,365.70942 6.0423609,327.5 -0.92483638,295.24419 -1.8057543,258.70723 3.5951625,226 21.018642,120.48572 99.987208,34.991242 204,9.0338272 256.1043,-3.9693126 312.07451,-0.986848 362.63995,17.487216 377.28847,22.839049 404.93207,36.839454 418,45.524927 474.79119,83.270626 514.61893,139.49571 530.96617,205 c 9.90763,39.70042 10.60538,82.62046 1.99147,122.5 -14.6081,67.63067 -55.32828,127.19438 -113.45764,165.96092 -37.18048,24.79571 -75.50382,38.81468 -120.49387,44.07756 -11.16247,1.30577 -44.92274,1.81681 -53.50613,0.80994 z m 35.98574,-42.32535 c 0.33208,-0.53731 0.0829,-2.89981 -0.55371,-5.25 -0.73506,-2.7136 -1.39006,-19.60104 -1.79476,-46.27307 l -0.63727,-42 -2.75,-0.31642 c -1.5125,-0.17403 -2.8379,-0.17403 -2.94533,0 -0.10743,0.17403 -0.49243,20.34142 -0.85555,44.81642 -0.36313,24.475 -1.00269,45.7375 -1.42125,47.25 l -0.76102,2.75 5.55756,0 c 3.05665,0 5.82925,-0.43962 6.16133,-0.97693 z m -38.09432,-5.04331 C 244.77682,487.5173 245,481.34334 245,446.47976 245,420.71977 244.64376,406 244.02032,406 c -0.53882,0 -2.00132,1.9125 -3.25,4.25 -2.20916,4.1355 -2.28379,5.21987 -2.77032,40.25 -0.44613,32.12126 -0.69295,36.35333 -2.29087,39.27937 -2.19994,4.02845 -1.57394,5.22063 2.74131,5.22063 2.95718,0 3.51352,-0.45267 4.94098,-4.02024 z M 315.16958,489.5 c -0.18173,-1.65 -0.64435,-18.525 -1.02804,-37.5 -0.67252,-33.25803 -0.78205,-34.689 -3.04273,-39.75 -1.2898,-2.8875 -2.9916,-5.25 -3.78176,-5.25 -1.2309,0 -1.3923,5.97979 -1.12686,41.75 0.1704,22.9625 0.68912,42.33717 1.15271,43.05483 0.50929,0.78838 2.29037,1.18417 4.5,1 3.41587,-0.28472 3.6353,-0.50272 3.32668,-3.30483 z m -103.67744,-6.78547 c 1.12201,-3.77825 1.50437,-10.0849 1.49421,-24.64603 -0.008,-10.76268 -0.29384,-20.61479 -0.63627,-21.8936 -0.588,-2.19581 -0.90696,-2.27921 -5.73635,-1.5 -2.81255,0.45381 -10.96373,0.81434 -18.11373,0.8012 -10.84192,-0.0199 -14.09706,-0.39917 -19.60856,-2.28447 -15.65395,-5.35467 -25.2772,-14.48821 -32.05983,-30.42836 -6.00962,-14.12348 -13.36246,-23.54657 -24.13724,-30.93327 -6.68681,-4.58418 -8.88294,-8.07 -6.55246,-10.40048 1.87154,-1.87154 7.85759,-2.89745 11.52926,-1.97592 l 2.77974,0.69768 -2.42616,1.83005 c -2.0706,1.56186 -2.23226,2.06372 -1.10301,3.42437 2.55724,3.08129 8.09881,0.69619 6.72152,-2.89297 -0.75151,-1.95839 0.67779,-1.91499 4.6564,0.14141 6.47519,3.34679 13.30381,9.20627 17.20034,14.7592 11.68624,16.65403 18.02757,22.37987 28.35534,25.60316 10.50402,3.27831 22.12542,2.58166 34.56311,-2.07187 5.09081,-1.90472 5.62967,-2.40962 6.66155,-6.24175 1.84122,-6.83776 5.80793,-13.70411 11.22718,-19.43416 5.51283,-5.82901 5.36106,-7.19723 -0.80718,-7.27679 -10.88221,-0.14037 -42.14162,-8.7587 -54.67149,-15.07313 -15.18181,-7.65087 -29.06954,-19.50988 -36.87226,-31.48596 -2.55794,-3.92607 -4.96498,-6.4692 -6.48382,-6.8504 -6.82041,-1.71182 -55.474546,2.39728 -71.72243,6.05734 -8.32169,1.87457 -8.295857,1.68592 -2.622681,19.1528 10.219292,31.46372 26.038966,58.69061 48.469781,83.42025 25.58853,28.21097 59.08878,50.00795 95.77636,62.31701 5.4304,1.82195 10.48936,3.0763 11.24213,2.78743 0.75278,-0.28887 2.04722,-2.8101 2.87655,-5.60274 z m 142.23183,-1.79283 c 53.59507,-21.21668 99.92037,-65.42823 123.19207,-117.57102 5.15771,-11.55643 12.58175,-33.35785 13.66395,-40.12555 0.65071,-4.06933 0.6382,-4.08926 -3.21337,-5.11829 -10.16953,-2.71702 -24.56151,-4.27341 -44.47434,-4.80959 -24.85262,-0.66918 -22.69913,-1.39956 -28.89228,9.79901 -1.95118,3.52816 -6.84174,9.66426 -11.05161,13.86625 -15.1503,15.12198 -36.91548,24.51555 -68.44839,29.54144 -16.43864,2.62008 -15.37526,1.6939 -9.5043,8.27802 2.80427,3.14492 6.22904,8.02696 7.6106,10.84899 5.38096,10.99139 5.62087,13.09342 6.27907,55.0164 0.57477,36.6088 0.73816,39.2837 2.51962,41.25 2.4697,2.72595 3.09315,2.67657 12.31898,-0.97566 z M 179.81955,411.25 c 0.27067,-1.90585 -0.14093,-2.25 -2.69098,-2.25 -3.54257,0 -4.8026,1.48292 -3.05217,3.59206 1.81588,2.188 5.3594,1.35995 5.74315,-1.34206 z m 12.59866,2.14301 C 193.2882,413.05917 194,412.175 194,411.42819 c 0,-2.03305 -3.23129,-3.43788 -5.27582,-2.29371 -3.90767,2.18684 -0.66095,5.9297 3.69403,4.25853 z m 14.62344,-2.9432 c 1.79405,-2.16169 -0.94014,-4.93419 -3.93014,-3.9852 -2.35482,0.74739 -2.7274,2.5195 -0.91151,4.33539 1.62876,1.62876 3.29956,1.50791 4.84165,-0.35019 z m -40.95184,-3.05802 c 1.13401,-1.3664 1.0485,-1.81748 -0.56869,-3 C 164.47426,403.6263 163.33976,403 163,403 c -0.33976,0 -1.47426,0.6263 -2.52112,1.39179 -1.61719,1.18252 -1.7027,1.6336 -0.56869,3 C 160.64428,408.2763 162.03469,409 163,409 c 0.96531,0 2.35572,-0.7237 3.08981,-1.60821 z m -10.12616,-7.84799 c 1.68453,-2.02973 0.43883,-3.5438 -2.91568,-3.5438 -3.07777,0 -4.56527,2.0827 -2.76983,3.87814 1.55891,1.55891 4.24536,1.40093 5.68551,-0.33434 z M 148.55887,390.5 c 1.92151,-1.48484 1.92151,-1.51516 0,-3 -2.384,-1.84223 -2.6994,-1.84895 -5.07999,-0.10821 -1.61719,1.18252 -1.7027,1.6336 -0.56869,3 1.66319,2.00402 3.15827,2.03266 5.64868,0.10821 z m -6.59522,-9.9562 C 143.56731,378.6115 142.447,377 139.5,377 c -2.70138,0 -3.94067,1.40925 -3.12,3.54789 0.719,1.87368 4.02725,1.87126 5.58365,-0.004 z M 135.5,370.5 c 0,-2.51076 -4.59613,-3.29402 -6.42169,-1.09436 -1.83035,2.20544 -0.34597,3.75128 3.26554,3.40072 C 134.73121,372.57462 135.5,372.01283 135.5,370.5 z M 64.071914,317.58539 C 79.209285,315.05208 103.1429,313 117.5518,313 c 9.69963,0 10.82303,-0.89374 8.15527,-6.48809 -1.3775,-2.88864 -2.19809,-3.39177 -6.49609,-3.98289 -14.85429,-2.04299 -70.912736,-0.15339 -73.602576,2.48097 -0.803016,0.78645 0.852528,12.29543 2.048397,14.24001 0.62263,1.01244 0.105475,1.06489 16.415113,-1.66461 z m 427.805536,-1.93773 c 1.61253,-1.94298 2.64828,-13.20471 1.29157,-14.0432 -0.59786,-0.3695 -6.39297,-1.16507 -12.87802,-1.76794 -8.90374,-0.82771 -16.81083,-0.78543 -32.291,0.17266 -11.275,0.69782 -21.46839,1.62832 -22.65198,2.06777 -2.68798,0.99803 -5.23227,7.75852 -3.35624,8.91797 0.67392,0.4165 11.63896,1.01507 24.36676,1.33016 16.99092,0.42061 25.66637,1.08446 32.64146,2.49772 12.09012,2.44963 11.55733,2.41551 12.87745,0.82486 z M 62,300.91245 c 7.942462,-0.75298 21.153636,-0.97868 36.234403,-0.61901 13.053917,0.31133 23.953107,0.21218 24.220417,-0.22033 0.2673,-0.43251 -0.40137,-3.8884 -1.48595,-7.67975 -3.79302,-13.25928 -5.21616,-27.3695 -4.72317,-46.82968 0.402,-15.86889 0.77998,-19.1307 3.1108,-26.84552 3.39496,-11.23703 9.06815,-22.4922 15.94473,-31.63311 l 5.43386,-7.22314 -1.89843,-7.18095 c -2.5426,-9.6176 -3.3576,-23.42967 -1.9284,-32.68096 1.59714,-10.33831 5.04461,-22.81001 6.78681,-24.55221 3.18067,-3.18067 18.17958,-0.81286 33.22276,5.24473 8.97532,3.61419 14.71704,6.62428 26.86936,14.08625 8.14098,4.99886 7.01547,4.93596 24.21281,1.35313 27.54074,-5.73772 66.87072,-5.59951 94.73542,0.33293 l 6.76458,1.44019 8.16347,-4.97694 c 19.09204,-11.63964 36.86254,-18.62314 49.98999,-19.64521 7.14823,-0.55654 7.15458,-0.55477 8.69574,2.42552 5.37569,10.39543 8.10451,35.01843 5.63804,50.87366 l -1.2973,8.33939 4.47352,5.28928 c 9.84052,11.63495 17.1925,25.38037 21.01458,39.28928 1.97045,7.17067 2.20475,10.48798 2.26015,32 0.0492,19.09754 -0.32891,26.40096 -1.85095,35.75391 -1.05202,6.46464 -1.65808,12.00858 -1.34681,12.31985 0.31128,0.31128 7.92202,0.019 16.91276,-0.64955 9.81374,-0.72972 23.62561,-0.97463 34.55955,-0.61281 l 18.21275,0.6027 0.77389,-3.70705 C 496.96741,289.13305 496.58573,251.30671 495.15241,241 489.56198,200.80023 474.26829,163.98717 449.67992,131.54424 436.30782,113.90054 413.29694,92.683018 393.5,79.742715 382.17269,72.338598 359.56503,61.13001 346.5,56.440717 321.42888,47.442202 298.46139,43.59891 269.5,43.555832 235.34723,43.505032 209.65934,48.651481 179.22972,61.641061 130.16458,82.585635 89.28894,121.59267 65.47172,170.19866 50.797259,200.14619 43.728228,228.53833 42.366189,263 c -0.646823,16.36564 0.77984,36.2661 2.772,38.66651 0.629297,0.75825 1.868144,1.16542 2.752994,0.90482 C 48.776032,302.31073 55.125,301.56423 62,300.91245 z"
     id="path3271"
     inkscape:connector-curvature="0" />
</svg>
