<?xml version="1.0" encoding="UTF-8" standalone="no"?>
<!-- Created with Inkscape (http://www.inkscape.org/) -->

<svg
   xmlns:dc="http://purl.org/dc/elements/1.1/"
   xmlns:cc="http://creativecommons.org/ns#"
   xmlns:rdf="http://www.w3.org/1999/02/22-rdf-syntax-ns#"
   xmlns:svg="http://www.w3.org/2000/svg"
   xmlns="http://www.w3.org/2000/svg"
   xmlns:sodipodi="http://sodipodi.sourceforge.net/DTD/sodipodi-0.dtd"
   xmlns:inkscape="http://www.inkscape.org/namespaces/inkscape"
   width="744.09448819"
   height="1052.3622047"
   id="svg2"
   version="1.1"
   inkscape:version="0.48.4 r9939"
   sodipodi:docname="New document 1">
  <defs
     id="defs4" />
  <sodipodi:namedview
     id="base"
     pagecolor="#ffffff"
     bordercolor="#666666"
     borderopacity="1.0"
     inkscape:pageopacity="0.0"
     inkscape:pageshadow="2"
     inkscape:zoom="0.35"
     inkscape:cx="-107.58762"
     inkscape:cy="520"
     inkscape:document-units="px"
     inkscape:current-layer="layer1"
     showgrid="false"
     inkscape:window-width="1918"
     inkscape:window-height="1078"
     inkscape:window-x="0"
     inkscape:window-y="0"
     inkscape:window-maximized="0" />
  <metadata
     id="metadata7">
    <rdf:RDF>
      <cc:Work
         rdf:about="">
        <dc:format>image/svg+xml</dc:format>
        <dc:type
           rdf:resource="http://purl.org/dc/dcmitype/StillImage" />
        <dc:title></dc:title>
      </cc:Work>
    </rdf:RDF>
  </metadata>
  <g
     inkscape:label="Layer 1"
     inkscape:groupmode="layer"
     id="layer1">
    <g
       id="g3040"
       transform="matrix(0.75285856,0,0,0.75285856,1144.7313,66.570107)">
      <g
         id="flowRoot2985"
         style="font-size:40px;font-style:normal;font-weight:normal;line-height:125%;letter-spacing:0px;word-spacing:0px;fill:#000000;fill-opacity:1;stroke:none;font-family:Sans"
         transform="matrix(31.019862,0,0,31.019862,44415.09,-4722.3485)">
        <path
           sodipodi:nodetypes="cccccsccscccccccssscccc"
           inkscape:connector-curvature="0"
           id="path2994"
           d="m -1464.9141,171.68247 0,0.50781 c 0.1302,1.84897 0.8334,3.40496 2.1094,4.66797 1.2891,1.25001 2.8711,1.87501 4.7461,1.875 1.901,1e-5 3.5026,-0.67057 4.8047,-2.01172 1.3151,-1.35416 1.9726,-3.03384 1.9726,-5.03906 0,-3.61978 -1.3476,-6.75779 -4.0429,-9.41407 -2.6954,-2.65622 -5.892,-3.98434 -9.5899,-3.98437 -3.776,3e-5 -6.9336,1.26956 -9.4726,3.80859 -2.5261,2.52607 -3.9193,5.81382 -4.1797,9.86328 0.3125,-2.23956 1.0417,-3.93878 2.1875,-5.09765 1.1588,-1.15884 2.7083,-1.73826 4.6484,-1.73828 1.862,2e-5 3.4375,0.62502 4.7266,1.875 1.289,1.25001 1.9857,2.81251 2.0898,4.6875 m 14.6094,0.27343 c 0,4.03647 -1.4258,7.47397 -4.2773,10.3125 -2.8386,2.83855 -6.2826,4.25782 -10.3321,4.25782 -4.0364,0 -7.4804,-1.41927 -10.332,-4.25782 -2.8516,-2.83853 -4.2773,-6.27603 -4.2773,-10.3125 0,-4.04946 1.4257,-7.49997 4.2773,-10.35156 2.8516,-2.86455 6.2956,-4.29684 10.332,-4.29687 4.0495,3e-5 7.4935,1.43232 10.3321,4.29687 2.8515,2.85159 4.2773,6.3021 4.2773,10.35156" />
      </g>
      <flowRoot
         transform="matrix(1.4911852,0,0,1.4911852,1780.9742,1230.7263)"
         style="font-size:144px;font-style:normal;font-variant:normal;font-weight:500;font-stretch:normal;line-height:125%;letter-spacing:0px;word-spacing:0px;fill:#000000;fill-opacity:1;stroke:none;font-family:Inconsolata;-inkscape-font-specification:Inconsolata Medium"
         id="flowRoot2996"
         xml:space="preserve"><flowRegion
           id="flowRegion2998"><rect
             style="font-size:144px;font-style:normal;font-variant:normal;font-weight:500;font-stretch:normal;font-family:Inconsolata;-inkscape-font-specification:Inconsolata Medium"
             y="-507.63782"
             x="-1777.1428"
             height="454.28571"
             width="374.28571"
             id="rect3000" /></flowRegion><flowPara
           id="flowPara3002">1</flowPara></flowRoot>      <flowRoot
         transform="matrix(1.4911852,0,0,1.4911852,1358.2976,1229.9748)"
         xml:space="preserve"
         id="flowRoot3004"
         style="font-size:144px;font-style:normal;font-variant:normal;font-weight:500;font-stretch:normal;line-height:125%;letter-spacing:0px;word-spacing:0px;fill:#ffffff;fill-opacity:1;stroke:none;font-family:Inconsolata;-inkscape-font-specification:Inconsolata Medium"><flowRegion
           id="flowRegion3006"><rect
             id="rect3008"
             width="374.28571"
             height="454.28571"
             x="-1777.1428"
             y="-507.63782"
             style="font-size:144px;font-style:normal;font-variant:normal;font-weight:500;font-stretch:normal;fill:#ffffff;font-family:Inconsolata;-inkscape-font-specification:Inconsolata Medium" /></flowRegion><flowPara
           id="flowPara3010">0</flowPara></flowRoot>    </g>
    <flowRoot
       xml:space="preserve"
       id="flowRoot3012"
       style="font-size:40px;font-style:normal;font-weight:normal;line-height:125%;letter-spacing:0px;word-spacing:0px;fill:#000000;fill-opacity:1;stroke:none;font-family:Sans"
       transform="matrix(0.75285856,0,0,0.75285856,91.947652,130.04131)"><flowRegion
         id="flowRegion3014"><rect
           id="rect3016"
           width="934.28571"
           height="560"
           x="-1862.8572"
           y="-527.63782" /></flowRegion><flowPara
         id="flowPara3018"></flowPara></flowRoot>  </g>
</svg>
