<?xml version="1.0" encoding="UTF-8" standalone="no"?>
<!-- Created with Inkscape (http://www.inkscape.org/) -->

<svg
   xmlns:dc="http://purl.org/dc/elements/1.1/"
   xmlns:cc="http://creativecommons.org/ns#"
   xmlns:rdf="http://www.w3.org/1999/02/22-rdf-syntax-ns#"
   xmlns:svg="http://www.w3.org/2000/svg"
   xmlns="http://www.w3.org/2000/svg"
   xmlns:sodipodi="http://sodipodi.sourceforge.net/DTD/sodipodi-0.dtd"
   xmlns:inkscape="http://www.inkscape.org/namespaces/inkscape"
   width="744.09448819"
   height="1052.3622047"
   id="svg3067"
   version="1.1"
   inkscape:version="0.48.4 r9939"
   sodipodi:docname="New document 5">
  <defs
     id="defs3069" />
  <sodipodi:namedview
     id="base"
     pagecolor="#ffffff"
     bordercolor="#666666"
     borderopacity="1.0"
     inkscape:pageopacity="0.0"
     inkscape:pageshadow="2"
     inkscape:zoom="0.86472131"
     inkscape:cx="417.7267"
     inkscape:cy="526.18109"
     inkscape:document-units="px"
     inkscape:current-layer="layer1"
     showgrid="false"
     inkscape:window-width="1918"
     inkscape:window-height="1078"
     inkscape:window-x="0"
     inkscape:window-y="0"
     inkscape:window-maximized="0" />
  <metadata
     id="metadata3072">
    <rdf:RDF>
      <cc:Work
         rdf:about="">
        <dc:format>image/svg+xml</dc:format>
        <dc:type
           rdf:resource="http://purl.org/dc/dcmitype/StillImage" />
        <dc:title></dc:title>
      </cc:Work>
    </rdf:RDF>
  </metadata>
  <g
     inkscape:label="Layer 1"
     inkscape:groupmode="layer"
     id="layer1">
    <flowRoot
       xml:space="preserve"
       id="flowRoot3198"
       style="font-size:40px;font-style:normal;font-weight:normal;line-height:125%;letter-spacing:0px;word-spacing:0px;fill:#800080;fill-opacity:1;stroke:none;font-family:Sans"
       transform="matrix(5.5569658,3.2083157,-3.2083157,5.5569658,7368.5191,4604.4163)"><flowRegion
         id="flowRegion3200"><rect
           id="rect3202"
           width="365.71429"
           height="254.28572"
           x="-1280"
           y="-30.494961"
           style="fill:#800080" /></flowRegion><flowPara
         id="flowPara3204">☯</flowPara></flowRoot>    <g
       transform="matrix(10.044439,0,0,10.044439,12713.937,1080.9682)"
       style="font-size:40px;font-style:normal;font-variant:normal;font-weight:normal;font-stretch:normal;line-height:125%;letter-spacing:0px;word-spacing:0px;fill:#241c1c;fill-opacity:1;stroke:none;font-family:FontAwesome;-inkscape-font-specification:FontAwesome"
       id="flowRoot3075">
      <path
         d="m -1222.5768,-49.081373 c 1.6995,-1.699399 2.5491,-3.750026 2.5491,-6.151886 0,-2.401812 -0.8496,-4.452447 -2.5491,-6.151891 -1.6993,-1.699384 -3.7501,-2.549099 -6.1518,-2.549129 -2.4018,3e-5 -4.4526,0.849745 -6.1519,2.549129 -1.6995,1.699444 -2.5491,3.750079 -2.5491,6.151891 0,2.40186 0.8496,4.452487 2.5491,6.151886 1.6993,1.699431 3.7501,2.549138 6.1519,2.549124 2.4017,1.4e-5 4.4525,-0.849693 6.1518,-2.549124 m 8.1339,-8.183139 0,4.129465 c -10e-5,0.148821 -0.052,0.297631 -0.1563,0.446428 -0.1042,0.133941 -0.2232,0.208345 -0.3571,0.223215 l -3.4598,0.535714 c -0.1638,0.520844 -0.4018,1.086319 -0.7143,1.696429 0.5059,0.714294 1.1755,1.569948 2.0089,2.566964 0.1041,0.148816 0.1562,0.297625 0.1563,0.446428 -10e-5,0.178578 -0.052,0.319947 -0.1563,0.424108 -0.3423,0.446433 -0.9598,1.116076 -1.8527,2.008928 -0.878,0.877979 -1.4583,1.316967 -1.741,1.316964 -0.1638,3e-6 -0.32,-0.05208 -0.4688,-0.15625 l -2.567,-2.008928 c -0.5506,0.282742 -1.1235,0.513397 -1.7187,0.691964 -0.1637,1.607145 -0.3348,2.760418 -0.5134,3.459822 -0.1042,0.357143 -0.3274,0.535714 -0.6696,0.535714 l -4.1518,0 c -0.1637,0 -0.3125,-0.05208 -0.4465,-0.15625 -0.1339,-0.119048 -0.2083,-0.252976 -0.2232,-0.401786 l -0.5134,-3.415178 c -0.5059,-0.148806 -1.064,-0.37946 -1.6741,-0.691965 l -2.6339,1.986607 c -0.1042,0.10417 -0.253,0.156253 -0.4464,0.15625 -0.1637,3e-6 -0.32,-0.05952 -0.4688,-0.178571 -2.1428,-1.979162 -3.2143,-3.169637 -3.2143,-3.571429 0,-0.133922 0.052,-0.275291 0.1563,-0.424107 0.1488,-0.208326 0.4539,-0.602671 0.9152,-1.183035 0.4613,-0.580349 0.811,-1.034218 1.0491,-1.361608 -0.3423,-0.654752 -0.6027,-1.26487 -0.7813,-1.830357 l -3.3928,-0.535714 c -0.1488,-0.01487 -0.2753,-0.08183 -0.3795,-0.200893 -0.1042,-0.133917 -0.1563,-0.282726 -0.1563,-0.446428 l 0,-4.129461 c 0,-0.1488 0.052,-0.29017 0.1563,-0.42411 0.1042,-0.14879 0.2232,-0.23064 0.3571,-0.24554 l 3.4599,-0.53571 c 0.1637,-0.52082 0.4017,-1.08629 0.7142,-1.69643 -0.5059,-0.71427 -1.1755,-1.56992 -2.0089,-2.56696 -0.1041,-0.16367 -0.1562,-0.31248 -0.1562,-0.44643 0,-0.17855 0.052,-0.32736 0.1562,-0.44643 0.3274,-0.44641 0.9375,-1.10861 1.8304,-1.98661 0.8928,-0.87795 1.4806,-1.31694 1.7634,-1.31696 0.1637,2e-5 0.3199,0.0521 0.4687,0.15625 l 2.567,2.00893 c 0.5059,-0.26784 1.0788,-0.50593 1.7187,-0.71429 0.1637,-1.60712 0.3348,-2.75295 0.5134,-3.4375 0.1042,-0.35711 0.3274,-0.53569 0.6697,-0.53571 l 4.1518,0 c 0.1636,2e-5 0.3124,0.0596 0.4464,0.17857 0.1339,0.10419 0.2083,0.23068 0.2232,0.37946 l 0.5134,3.41518 c 0.5059,0.14883 1.064,0.37949 1.6741,0.69196 l 2.6339,-1.9866 c 0.1191,-0.10414 0.2679,-0.15623 0.4465,-0.15625 0.1636,2e-5 0.3199,0.0596 0.4687,0.17857 2.1428,1.97919 3.2143,3.16966 3.2143,3.57143 0,0.13395 -0.052,0.27532 -0.1563,0.4241 -0.1786,0.23812 -0.4911,0.63991 -0.9375,1.20536 -0.4464,0.5655 -0.7812,1.01193 -1.0044,1.33929 0.3422,0.7143 0.5952,1.32442 0.7589,1.83035 l 3.3929,0.5134 c 0.1487,0.0298 0.2752,0.11162 0.3794,0.24553 0.1042,0.11907 0.1562,0.26044 0.1563,0.42411"
         id="path3207"
         inkscape:connector-curvature="0"
         sodipodi:nodetypes="cscccsccccccccccccccccccsscccccccscsccccsscccccsccccccccccccccccsccccccc"
         style="fill:#241c1c" />
    </g>
  </g>
</svg>
